<svg width="344" height="280" viewBox="0 0 344 280" fill="none" xmlns="http://www.w3.org/2000/svg">
<path fill-rule="evenodd" clip-rule="evenodd" d="M195.348 3.63983C195.348 3.63983 113.153 -19.6946 49.2294 51.8008C49.2294 51.8008 -1.63351 67.4367 0.403404 156.776C0.403404 156.776 -10.9598 224.472 86.9318 212.834C86.9318 212.834 126.734 191.389 128.831 260.855C128.831 260.855 136.637 333.426 301.747 195.985C301.747 195.985 354.168 142.106 293.558 80.8146C277.139 64.2116 250.816 60.6296 233.73 44.7149C231.715 42.8384 229.956 40.7139 228.598 38.3113C222.343 27.2481 221.597 15.5275 210.264 9.77616C205.783 7.502 200.678 5.27655 195.348 3.63983Z" fill="#E7F6F2"/>
<path d="M241.789 29.7399C242.291 24.0845 247.281 19.9063 252.937 20.4074C258.592 20.9086 262.77 25.8994 262.269 31.5547C261.768 37.21 256.777 41.3883 251.122 40.8871C245.466 40.386 241.288 35.3952 241.789 29.7399Z" fill="#E7F6F2"/>
<path d="M335.621 108.07C335.817 105.855 337.773 104.218 339.988 104.414C342.203 104.61 343.84 106.565 343.644 108.781C343.447 110.996 341.492 112.633 339.277 112.437C337.062 112.24 335.425 110.285 335.621 108.07Z" fill="#E7F6F2"/>
<path d="M69.8375 125.212V231.369H211.676L177.192 133.004H96.9069C96.5356 133.004 96.1795 132.856 95.9169 132.594L88.2451 124.922C87.9825 124.659 87.6264 124.512 87.2551 124.512H70.5375C70.1509 124.512 69.8375 124.825 69.8375 125.212Z" fill="#C7EBE1"/>
<path fill-rule="evenodd" clip-rule="evenodd" d="M88.5915 124.577C88.237 124.223 87.7563 124.023 87.255 124.023H70.5374C69.8802 124.023 69.3474 124.556 69.3474 125.213V231.86H212.367L177.539 132.515H96.9068C96.6654 132.515 96.434 132.419 96.2633 132.249L88.5915 124.577ZM87.255 125.003C87.4964 125.003 87.7279 125.099 87.8985 125.27L95.5703 132.942C95.9248 133.296 96.4055 133.495 96.9068 133.495H176.844L210.985 230.88H70.3274V125.213C70.3274 125.097 70.4214 125.003 70.5374 125.003H87.255Z" fill="#003742"/>
<path d="M104.111 62.9312C104.111 62.158 104.738 61.5312 105.511 61.5312H210.275C211.049 61.5312 211.675 62.1581 211.675 62.9312V203.109C211.675 205.429 209.795 207.309 207.475 207.309H108.311C105.991 207.309 104.111 205.429 104.111 203.109V62.9312Z" fill="#C7EBE1"/>
<path fill-rule="evenodd" clip-rule="evenodd" d="M210.275 62.5112H105.511C105.279 62.5112 105.091 62.6993 105.091 62.9312V203.109C105.091 204.888 106.532 206.329 108.311 206.329H207.475C209.254 206.329 210.695 204.888 210.695 203.109V62.9312C210.695 62.6993 210.507 62.5112 210.275 62.5112ZM105.511 61.5312C104.738 61.5312 104.111 62.158 104.111 62.9312V203.109C104.111 205.429 105.991 207.309 108.311 207.309H207.475C209.795 207.309 211.675 205.429 211.675 203.109V62.9312C211.675 62.1581 211.049 61.5312 210.275 61.5312H105.511Z" fill="#003742"/>
<path d="M104.111 72.8375C104.111 72.0643 104.738 71.4375 105.511 71.4375H210.275C211.049 71.4375 211.675 72.0643 211.675 72.8375V213.016C211.675 215.335 209.795 217.216 207.475 217.216H108.311C105.991 217.216 104.111 215.335 104.111 213.016V72.8375Z" fill="#F7FCFB"/>
<path fill-rule="evenodd" clip-rule="evenodd" d="M210.275 72.4175H105.511C105.279 72.4175 105.091 72.6055 105.091 72.8375V213.016C105.091 214.794 106.532 216.236 108.311 216.236H207.475C209.254 216.236 210.695 214.794 210.695 213.016V72.8375C210.695 72.6055 210.507 72.4175 210.275 72.4175ZM105.511 71.4375C104.738 71.4375 104.111 72.0643 104.111 72.8375V213.016C104.111 215.335 105.991 217.216 108.311 217.216H207.475C209.795 217.216 211.675 215.335 211.675 213.016V72.8375C211.675 72.0643 211.049 71.4375 210.275 71.4375H105.511Z" fill="#003742"/>
<path d="M239.697 71.2969C239.697 86.8515 227.088 99.461 211.533 99.461C195.979 99.461 183.369 86.8515 183.369 71.2969C183.369 55.7423 195.979 43.1328 211.533 43.1328C227.088 43.1328 239.697 55.7423 239.697 71.2969Z" fill="#18978F"/>
<path fill-rule="evenodd" clip-rule="evenodd" d="M211.533 98.481C226.547 98.481 238.717 86.3103 238.717 71.2969C238.717 56.2835 226.547 44.1128 211.533 44.1128C196.52 44.1128 184.349 56.2835 184.349 71.2969C184.349 86.3103 196.52 98.481 211.533 98.481ZM211.533 99.461C227.088 99.461 239.697 86.8515 239.697 71.2969C239.697 55.7423 227.088 43.1328 211.533 43.1328C195.979 43.1328 183.369 55.7423 183.369 71.2969C183.369 86.8515 195.979 99.461 211.533 99.461Z" fill="#003742"/>
<path fill-rule="evenodd" clip-rule="evenodd" d="M226.546 60.3198C227.987 61.6557 228.097 63.9337 226.79 65.4079L213.531 80.3702C212.84 81.1496 211.851 81.5814 210.822 81.552C209.794 81.5227 208.83 81.0353 208.183 80.2178L200.41 70.3987C199.186 68.8524 199.419 66.5842 200.931 65.3325C202.443 64.0807 204.661 64.3195 205.886 65.8657L211.071 72.4168L221.57 60.57C222.877 59.0959 225.104 58.9838 226.546 60.3198Z" fill="#F7FCFB"/>
<path fill-rule="evenodd" clip-rule="evenodd" d="M221.203 60.2428C222.691 58.5637 225.235 58.4347 226.879 59.9582C228.516 61.4759 228.639 64.0579 227.157 65.7307L213.897 80.693C213.112 81.5795 211.984 82.0732 210.808 82.0397C209.633 82.0062 208.534 81.449 207.798 80.5197L200.025 70.7007C198.637 68.9471 198.9 66.3758 200.619 64.9528C202.344 63.5244 204.876 63.7994 206.269 65.5594L211.092 71.6519L221.203 60.2428ZM226.212 60.677C224.973 59.5286 223.061 59.6236 221.937 60.8928L211.438 72.7396C211.342 72.8481 211.203 72.9085 211.058 72.9044C210.913 72.9004 210.777 72.8324 210.687 72.7188L205.501 66.1677C204.446 64.8352 202.542 64.6326 201.243 65.7077C199.938 66.7882 199.734 68.7534 200.794 70.0924L208.567 79.9114C209.125 80.6172 209.955 81.035 210.836 81.0601C211.717 81.0852 212.568 80.7154 213.164 80.043L226.423 65.0807C227.554 63.8052 227.458 61.8312 226.212 60.677Z" fill="#003742"/>
<path d="M99.3999 132.516H105.085V179.201H99.3999V132.516Z" fill="#82D3C1"/>
<path fill-rule="evenodd" clip-rule="evenodd" d="M104.105 133.496H100.38V178.221H104.105V133.496ZM99.3999 132.516V179.201H105.085V132.516H99.3999Z" fill="#003742"/>
<path d="M119.275 145.739L69.4356 232.01H212.225C212.738 232.01 213.209 231.73 213.454 231.28L259.939 146.074C260.194 145.608 259.856 145.039 259.325 145.039H120.488C119.988 145.039 119.526 145.306 119.275 145.739Z" fill="#82D3C1"/>
<path fill-rule="evenodd" clip-rule="evenodd" d="M260.37 146.307C260.802 145.514 260.228 144.547 259.325 144.547H120.488C119.813 144.547 119.189 144.907 118.851 145.491L68.5867 232.497H212.225C212.917 232.497 213.553 232.12 213.884 231.513L260.37 146.307ZM259.325 145.527C259.484 145.527 259.586 145.698 259.509 145.837L213.024 231.043C212.865 231.335 212.558 231.517 212.225 231.517H70.2846L119.7 145.982C119.862 145.7 120.163 145.527 120.488 145.527H259.325Z" fill="#003742"/>
<path d="M194.408 162.02C193.888 162.02 193.55 161.472 193.782 161.006L195.913 156.745C196.032 156.508 196.274 156.358 196.539 156.358L240.264 156.358C240.785 156.358 241.123 156.906 240.89 157.371L238.76 161.633C238.641 161.87 238.399 162.02 238.134 162.02L194.408 162.02Z" fill="#55B5A7"/>
<path fill-rule="evenodd" clip-rule="evenodd" d="M194.861 161.04L237.96 161.04L239.811 157.338L196.712 157.338L194.861 161.04ZM193.782 161.006C193.55 161.472 193.888 162.02 194.408 162.02L238.134 162.02C238.399 162.02 238.641 161.87 238.76 161.633L240.89 157.371C241.123 156.906 240.785 156.358 240.264 156.358L196.539 156.358C196.274 156.358 196.032 156.508 195.913 156.745L193.782 161.006Z" fill="#003742"/>
<path d="M119.68 104.688L119.68 103.988L171.68 103.987L171.68 104.687L119.68 104.688Z" fill="#003742"/>
<path d="M119.68 113.387L119.68 112.687L171.68 112.687L171.68 113.387L119.68 113.387Z" fill="#003742"/>
<path d="M119.68 122.09L119.68 121.39L159.68 121.39L159.68 122.09L119.68 122.09Z" fill="#003742"/>
</svg>
