<svg width="20" height="24" viewBox="0 0 20 24" fill="none" xmlns="http://www.w3.org/2000/svg">
<path fill-rule="evenodd" clip-rule="evenodd" d="M0.922419 0C0.412981 0 0 0.413276 0 0.923077V23.0769C0 23.5867 0.412981 24 0.922419 24H2.26141C2.27457 24 2.28772 24 2.30086 23.9999C2.34978 23.9997 2.39855 23.9989 2.44716 23.9974C2.68198 23.9945 2.9168 23.9945 3.1516 23.9945C4.15236 23.9946 5.15281 23.9947 6.15179 23.7652C7.50134 23.4551 8.83884 22.7479 10.4864 21.2672L16.4054 16.2642L16.4103 16.26C17.8634 15.0143 18.7312 13.9019 19.2008 12.6054C19.6589 11.3407 19.7006 9.99024 19.6983 8.39513C19.6983 8.38987 19.6982 8.38462 19.6981 8.37937L19.6981 5.92556C19.6981 2.65296 17.047 0 13.7768 0H0.922419ZM7.83849 13.995H14.1358C15.0465 13.9947 15.906 13.7754 16.6647 13.3869C16.3115 13.8357 15.8432 14.3134 15.2159 14.8514L9.28847 19.8615C9.28117 19.8677 9.27396 19.874 9.26686 19.8803C8.32693 20.7263 7.55485 21.2447 6.87037 21.568C7.48076 20.6728 7.83798 19.5895 7.8385 18.423L7.83849 13.995ZM17.8447 8.68116C17.8503 8.5981 17.8532 8.51428 17.8533 8.42981V5.92556C17.8533 3.67257 16.0282 1.84615 13.7768 1.84615H1.84484V22.1538H2.19757C2.21924 22.1519 2.24112 22.1507 2.26319 22.1503C2.31317 22.1494 2.36254 22.1486 2.41131 22.1479C2.63051 22.1403 2.84489 22.1136 3.05285 22.0694C4.72617 21.7065 5.97986 20.2168 5.98085 18.4339L5.98085 13.072C5.98085 12.886 6.03693 12.7058 6.13974 12.554C6.17554 12.4976 6.21762 12.4447 6.26551 12.3967C6.43831 12.2232 6.67268 12.1258 6.91706 12.1258H14.1412C16.0971 12.1249 17.6998 10.6073 17.8447 8.68116Z" fill="#006B70"/>
</svg>
